<svg width="109" height="109" viewBox="0 0 109 109" fill="none" xmlns="http://www.w3.org/2000/svg">
<circle cx="54.5" cy="54.5" r="54.5" fill="#04B3E3"/>
<path d="M51.8303 58.576C49.9529 57.936 48.2463 57.296 46.7103 56.656C45.1743 55.9733 43.8516 55.1627 42.7423 54.224C41.6329 53.2853 40.7583 52.176 40.1183 50.896C39.5209 49.5733 39.2223 47.9733 39.2223 46.096C39.2223 43.1947 40.1183 40.7627 41.9103 38.8C43.7023 36.7947 46.2623 35.4293 49.5903 34.704V29.52C49.9743 29.4347 50.5716 29.328 51.3823 29.2C52.1929 29.072 53.0249 29.008 53.8783 29.008C55.5423 29.008 56.8436 29.3067 57.7823 29.904C58.7209 30.4587 59.1903 31.6747 59.1903 33.552V34.384C61.8356 34.7253 63.9476 35.408 65.5263 36.432C67.1476 37.456 67.9583 38.864 67.9583 40.656C67.9583 41.7653 67.7023 42.7253 67.1903 43.536C66.6783 44.304 66.0596 44.9653 65.3343 45.52C64.3956 44.9227 63.1369 44.4107 61.5583 43.984C59.9796 43.5147 58.2516 43.28 56.3743 43.28C54.4543 43.28 53.0463 43.5573 52.1503 44.112C51.2543 44.624 50.8063 45.2853 50.8063 46.096C50.8063 46.736 51.0836 47.2693 51.6383 47.696C52.1929 48.08 53.0249 48.4427 54.1343 48.784L57.5263 49.872C61.5369 51.152 64.6089 52.7947 66.7423 54.8C68.9183 56.7627 70.0063 59.4507 70.0063 62.864C70.0063 65.7653 69.0889 68.24 67.2543 70.288C65.4196 72.2933 62.7316 73.6587 59.1903 74.384V79.504C58.8063 79.5893 58.2089 79.696 57.3983 79.824C56.5876 79.952 55.7556 80.016 54.9023 80.016C53.2383 80.016 51.9369 79.7173 50.9983 79.12C50.0596 78.5653 49.5903 77.3493 49.5903 75.472V74.832C48.0543 74.6613 46.6463 74.384 45.3663 74C44.1289 73.616 43.0409 73.1253 42.1023 72.528C41.2063 71.9307 40.5023 71.2267 39.9903 70.416C39.4783 69.6053 39.2223 68.688 39.2223 67.664C39.2223 66.4267 39.5849 65.3813 40.3103 64.528C41.0356 63.632 41.8249 62.9493 42.6783 62.48C43.8729 63.4187 45.3236 64.2293 47.0303 64.912C48.7796 65.5947 50.6783 65.936 52.7263 65.936C54.8169 65.936 56.2889 65.616 57.1423 64.976C57.9956 64.336 58.4223 63.5893 58.4223 62.736C58.4223 61.8827 58.0809 61.2427 57.3983 60.816C56.7156 60.3467 55.7556 59.8987 54.5183 59.472L51.8303 58.576Z" fill="white"/>
</svg>
