<svg width="208" height="208" viewBox="0 0 208 208" fill="none" xmlns="http://www.w3.org/2000/svg">
<path d="M104.001 149.716L68.0342 171.382C66.4453 172.394 64.7842 172.827 63.0509 172.682C61.3176 172.538 59.8009 171.96 58.5009 170.949C57.2009 169.938 56.1898 168.676 55.4676 167.162C54.7453 165.648 54.6009 163.949 55.0342 162.066L64.5676 121.116L32.7176 93.5991C31.2731 92.2991 30.3718 90.8171 30.0136 89.1531C29.6553 87.4891 29.7622 85.8655 30.3342 84.2824C30.9062 82.6993 31.7729 81.3993 32.9342 80.3824C34.0956 79.3655 35.6845 78.7155 37.7009 78.4324L79.7342 74.7491L95.9842 36.1824C96.7065 34.4491 97.8273 33.1491 99.3469 32.2824C100.866 31.4158 102.418 30.9824 104.001 30.9824C105.584 30.9824 107.135 31.4158 108.655 32.2824C110.174 33.1491 111.295 34.4491 112.018 36.1824L128.268 74.7491L170.301 78.4324C172.323 78.7213 173.912 79.3713 175.068 80.3824C176.223 81.3935 177.09 82.6935 177.668 84.2824C178.245 85.8713 178.355 87.4978 177.997 89.1618C177.639 90.8258 176.734 92.3049 175.284 93.5991L143.434 121.116L152.968 162.066C153.401 163.944 153.256 165.642 152.534 167.162C151.812 168.681 150.801 169.944 149.501 170.949C148.201 171.954 146.684 172.532 144.951 172.682C143.218 172.833 141.556 172.399 139.968 171.382L104.001 149.716Z" fill="#B39DE7"/>
</svg>
