<svg width="149" height="149" viewBox="0 0 149 149" fill="none" xmlns="http://www.w3.org/2000/svg">
<path d="M43.459 20.7365C34.0211 26.1855 26.1838 34.0228 20.7348 43.4607C15.2859 52.8987 12.4173 63.6046 12.4173 74.5026C12.4174 85.4006 15.2861 96.1065 20.7352 105.544C26.1843 114.982 34.0217 122.819 43.4597 128.268C52.8977 133.717 63.6037 136.586 74.5016 136.586C85.3996 136.585 96.1055 133.717 105.543 128.267C114.981 122.818 122.818 114.981 128.267 105.543C133.716 96.1046 136.584 85.3986 136.584 74.5006L136.553 72.4891C136.205 61.7673 133.085 51.3185 127.497 42.1614C121.909 33.0043 114.044 25.4514 104.668 20.2391C95.2916 15.0267 84.7249 12.3328 73.9977 12.42C63.2706 12.5072 52.7491 15.3725 43.459 20.7365ZM73.7743 80.6655C72.2641 80.4876 70.8717 79.7616 69.8613 78.6253C68.8508 77.4889 68.2925 76.0213 68.2923 74.5006V43.459C68.2923 41.8124 68.9464 40.2333 70.1107 39.069C71.275 37.9047 72.8541 37.2506 74.5007 37.2506C76.1472 37.2506 77.7263 37.9047 78.8906 39.069C80.0549 40.2333 80.709 41.8124 80.709 43.459V68.2923H96.2298C97.7504 68.2925 99.2181 68.8508 100.354 69.8612C101.491 70.8717 102.217 72.2641 102.395 73.7743L102.438 74.5006C102.438 76.1472 101.784 77.7263 100.62 78.8906C99.4555 80.0549 97.8764 80.709 96.2298 80.709H74.5007L73.7743 80.6655Z" fill="#7AD5EE"/>
</svg>
