<svg width="191" height="191" viewBox="0 0 191 191" fill="none" xmlns="http://www.w3.org/2000/svg">
<path d="M64.9102 126.108C46.6309 115.533 34.3203 95.7611 34.3203 73.1172C34.3203 39.3378 61.7206 11.9375 95.5 11.9375C129.279 11.9375 156.68 39.3378 156.68 73.1172C156.68 95.7611 144.369 115.533 126.09 126.108V147.727C126.09 151.028 123.423 153.695 120.121 153.695H70.8789C67.5774 153.695 64.9102 151.028 64.9102 147.727V126.108ZM73.1172 165.633H117.883C118.704 165.633 119.375 166.304 119.375 167.125V173.094C119.375 176.395 116.708 179.062 113.406 179.062H77.5938C74.2923 179.062 71.625 176.395 71.625 173.094V167.125C71.625 166.304 72.2965 165.633 73.1172 165.633Z" fill="#FFD635"/>
</svg>
